<?xml version="1.0" encoding="iso-8859-1"?>
<!-- Generator: Adobe Illustrator 19.0.0, SVG Export Plug-In . SVG Version: 6.00 Build 0)  -->
<svg version="1.1" id="Capa_1" xmlns="http://www.w3.org/2000/svg" xmlns:xlink="http://www.w3.org/1999/xlink" x="0px" y="0px"
	 viewBox="0 0 512.001 512.001" style="enable-background:new 0 0 512.001 512.001;" xml:space="preserve">
<g>
	<g>
		<path d="M157.261,127.901c-4.069-3.735-10.396-3.461-14.129,0.607c-12.598,13.729-18.807,32.553-17.034,51.646
			c0.481,5.185,4.84,9.077,9.945,9.077c0.31-0.001,0.622-0.015,0.936-0.044c5.499-0.51,9.544-5.382,9.033-10.881
			c-1.251-13.479,3.071-26.701,11.856-36.276C161.602,137.961,161.33,131.635,157.261,127.901z"/>
	</g>
</g>
<g>
	<g>
		<path d="M230.161,127.762c-3.798-4.008-10.128-4.179-14.137-0.379c-4.009,3.8-4.179,10.129-0.379,14.137
			c16.585,17.5,16.799,46.21,0.476,64c-8.188,8.923-19.505,13.702-31.082,13.1c-5.498-0.271-10.218,3.954-10.503,9.47
			c-0.286,5.516,3.954,10.218,9.47,10.503c0.998,0.051,1.992,0.077,2.986,0.077c16.479,0,32.327-7.054,43.865-19.628
			C254.133,193.674,253.821,152.726,230.161,127.762z"/>
	</g>
</g>
<g>
	<g>
		<path d="M206.901,153.082c-5.477-5.779-12.8-8.885-20.563-8.865c-7.79,0.063-15.05,3.335-20.441,9.212
			c-3.734,4.069-3.462,10.395,0.607,14.129c4.071,3.733,10.396,3.459,14.128-0.61c1.602-1.745,3.685-2.716,5.867-2.733
			c0.021,0,0.04,0,0.061,0c2.153,0,4.22,0.93,5.824,2.624c3.73,3.936,3.777,10.643,0.103,14.648
			c-1.722,1.876-3.973,2.843-6.311,2.722c-5.506-0.28-10.218,3.955-10.503,9.471c-0.285,5.515,3.954,10.218,9.47,10.503
			c0.475,0.024,0.947,0.037,1.42,0.037c7.784,0,15.248-3.31,20.661-9.211C217.914,183.359,217.77,164.551,206.901,153.082z"/>
	</g>
</g>
<g>
	<g>
		<path d="M245.566,292.368c-4.07-3.736-10.396-3.463-14.129,0.606c-12.598,13.729-18.807,32.553-17.034,51.646
			c0.481,5.185,4.84,9.077,9.945,9.077c0.31,0,0.622-0.014,0.936-0.043c5.499-0.51,9.544-5.382,9.033-10.881
			c-1.251-13.48,3.07-26.702,11.856-36.276C249.907,302.428,249.635,296.102,245.566,292.368z"/>
	</g>
</g>
<g>
	<g>
		<path d="M318.466,292.228c-3.798-4.008-10.128-4.179-14.137-0.379c-4.009,3.8-4.179,10.129-0.379,14.137
			c16.585,17.5,16.799,46.21,0.475,64c-8.188,8.923-19.517,13.702-31.082,13.1c-5.527-0.267-10.219,3.955-10.503,9.471
			c-0.285,5.515,3.954,10.218,9.47,10.503c0.997,0.051,1.992,0.077,2.984,0.077c16.482,0,32.329-7.054,43.867-19.629
			C342.438,358.14,342.126,317.193,318.466,292.228z"/>
	</g>
</g>
<g>
	<g>
		<path d="M294.3,318.54c-5.148-5.432-11.996-8.414-19.306-8.414c-0.072,0.001-0.145,0.001-0.218,0.002
			c-7.397,0.06-14.291,3.165-19.408,8.742c-3.734,4.069-3.462,10.395,0.607,14.129c4.069,3.736,10.396,3.462,14.129-0.607
			c1.326-1.446,3.043-2.25,4.834-2.264c0.017,0,0.032,0,0.049,0c1.766,0,3.468,0.771,4.797,2.172
			c3.163,3.337,3.202,9.027,0.086,12.423c-1.425,1.554-3.25,2.366-5.196,2.254c-5.485-0.273-10.218,3.954-10.503,9.47
			c-0.286,5.515,3.954,10.218,9.47,10.503c0.451,0.023,0.9,0.035,1.35,0.035c7.392,0,14.478-3.141,19.616-8.741
			C304.73,347.211,304.592,329.4,294.3,318.54z"/>
	</g>
</g>
<g>
	<g>
		<path d="M68.763,292.367c-4.069-3.735-10.396-3.462-14.129,0.607C42.036,306.703,35.827,325.528,37.6,344.62
			c0.481,5.185,4.84,9.077,9.945,9.077c0.31,0,0.622-0.014,0.936-0.043c5.499-0.51,9.544-5.382,9.033-10.881
			c-1.251-13.479,3.071-26.702,11.856-36.277C73.104,302.427,72.832,296.101,68.763,292.367z"/>
	</g>
</g>
<g>
	<g>
		<path d="M141.663,292.228c-3.798-4.008-10.128-4.179-14.137-0.379s-4.179,10.129-0.379,14.137c16.585,17.5,16.799,46.21,0.476,64
			c-8.188,8.924-19.508,13.707-31.082,13.1c-5.519-0.267-10.219,3.955-10.503,9.471c-0.285,5.515,3.954,10.218,9.47,10.503
			c0.997,0.051,1.992,0.077,2.984,0.077c16.481,0,32.328-7.054,43.867-19.629C165.635,358.14,165.323,317.192,141.663,292.228z"/>
	</g>
</g>
<g>
	<g>
		<path d="M118.137,317.84c-5.343-5.638-12.448-8.734-20.032-8.734c-0.074,0-0.149,0-0.225,0.001
			c-7.675,0.062-14.827,3.284-20.139,9.074c-3.734,4.07-3.462,10.396,0.607,14.129c4.072,3.734,10.396,3.461,14.129-0.608
			c1.521-1.658,3.498-2.579,5.564-2.596c2.062-0.019,4.04,0.868,5.579,2.491c3.563,3.76,3.608,10.168,0.099,13.993
			c-1.635,1.782-3.754,2.701-5.984,2.585c-5.491-0.265-10.218,3.955-10.503,9.47c-0.286,5.516,3.954,10.218,9.47,10.503
			c0.468,0.024,0.934,0.036,1.399,0.036c7.668,0,15.021-3.26,20.354-9.072C128.978,347.643,128.836,329.128,118.137,317.84z"/>
	</g>
</g>
<g>
	<g>
		<path d="M472.22,255.987c24.841-19.738,39.781-50.034,39.781-82.219c0-57.842-47.058-104.899-104.899-104.899H186.996
			c-54.312,0-98.498,47.058-98.498,104.899c0,22.245,6.541,42.891,17.675,59.883c-2.533-0.209-5.092-0.317-7.675-0.317
			C44.187,233.334,0,280.392,0,338.233s44.187,104.899,98.498,104.899c0.024,0,0.048-0.001,0.072-0.001h172.717h3.942
			c0.024,0,0.047,0.001,0.071,0.001c0.024,0,0.047-0.001,0.071-0.001h131.731h0.001c28.017,0,54.361-10.912,74.173-30.724
			C501.089,392.594,512,366.252,512,338.233c0-28.02-10.912-54.362-30.726-74.175C478.392,261.176,475.365,258.487,472.22,255.987z
			 M407.102,88.868c30.049,0,56.482,15.706,71.575,39.326h-62.662c-5.522,0-10,4.477-10,10c0,5.523,4.478,10,10,10h67.546
			c1.495,0,2.909-0.337,4.183-0.926c2.749,8.344,4.258,17.247,4.258,26.5c0,28.397-14.365,54.988-37.829,70.664
			c-14.426-7.257-30.454-11.095-47.072-11.094l-131.15,0.005c-0.216-0.002-0.432-0.009-0.648-0.009c-2.513,0-5.004,0.102-7.47,0.3
			c9.977-15.232,16.256-33.401,17.449-53.024c0.339,0.035,0.683,0.053,1.031,0.053h106.236c5.522,0,10-4.477,10-10
			c0-5.523-4.478-10-10-10H286.311c-0.535,0-1.057,0.054-1.569,0.135c-1.548-13.314-5.447-25.863-11.241-37.159h51.905
			c5.522,0,10-4.477,10-10c0-5.523-4.478-10-10-10h-54.117c-3.24,0-6.112,1.548-7.939,3.937
			c-5.403-7.055-11.649-13.349-18.573-18.708H407.102z M186.996,88.868c43.284,0,78.498,38.086,78.498,84.899
			c0,46.813-35.214,84.899-78.498,84.899s-78.498-38.086-78.498-84.899C108.498,126.954,143.712,88.868,186.996,88.868z
			 M194.466,278.367c-2.83,4.322-5.362,8.879-7.567,13.639c-2.207-4.767-4.743-9.33-7.578-13.656
			c2.533,0.209,5.092,0.317,7.675,0.317C189.509,278.667,192,278.565,194.466,278.367z M98.534,423.133h-0.036
			c-0.004,0-0.008,0.001-0.013,0.001C55.207,423.125,20,385.042,20,338.233c0-46.813,35.214-84.899,78.498-84.899
			c41.935,0,76.294,35.748,78.396,80.548c-0.056,1.444-0.091,2.893-0.091,4.352s0.036,2.908,0.091,4.352
			C174.793,387.372,140.452,423.112,98.534,423.133z M156.279,423.131c12.931-10.008,23.495-23.28,30.62-38.671
			c7.125,15.391,17.689,28.662,30.62,38.671H156.279z M275.336,423.131h-0.035h-0.036c-41.918-0.02-76.259-35.76-78.36-80.547
			c0.056-1.444,0.091-2.893,0.091-4.352s-0.036-2.908-0.091-4.352c2.1-44.759,36.4-80.48,78.283-80.544
			c0.038,0,0.075,0.006,0.113,0.006h0.32c43.136,0.189,78.178,38.194,78.178,84.891
			C353.799,385.034,318.604,423.111,275.336,423.131z M450.731,323.133h39.916c0.882,4.937,1.355,9.983,1.355,15.104
			c-0.001,16.125-4.488,31.554-12.835,44.895H442.43c-5.522,0-10,4.477-10,10s4.478,10,10,10h19.387
			c-15.292,12.935-34.455,20-54.713,20h-74.022c18.59-14.39,32.29-35.524,37.906-60h64.013c5.522,0,10-4.477,10-10s-4.478-10-10-10
			h-61.313c0.07-1.624,0.111-3.256,0.111-4.898c0-16.234-3.481-31.618-9.69-45.352h25.892c5.522,0,10-4.477,10-10s-4.478-10-10-10
			H353.73c-0.463,0-0.916,0.043-1.362,0.104c-5.562-7.435-12.05-14.049-19.278-19.645l74.011-0.003
			c15.157-0.001,29.698,3.963,42.47,11.367c0.002,0.001,0.003,0.002,0.005,0.003c6.335,3.673,12.243,8.178,17.559,13.495
			c7.329,7.328,13.132,15.769,17.296,24.93h-33.7c-5.522,0-10,4.477-10,10S445.209,323.133,450.731,323.133z"/>
	</g>
</g>
<g>
	<g>
		<path d="M403.72,386.06c-1.86-1.86-4.44-2.93-7.07-2.93s-5.199,1.07-7.069,2.93c-1.86,1.86-2.92,4.44-2.92,7.07
			c0,2.64,1.06,5.21,2.92,7.07c1.87,1.86,4.439,2.93,7.069,2.93c2.641,0,5.21-1.07,7.07-2.93c1.87-1.86,2.94-4.44,2.94-7.07
			S405.59,387.92,403.72,386.06z"/>
	</g>
</g>
<g>
	<g>
		<path d="M342.4,196.06c-1.859-1.86-4.439-2.93-7.069-2.93s-5.2,1.07-7.07,2.93c-1.86,1.86-2.93,4.44-2.93,7.07
			s1.069,5.21,2.93,7.07c1.87,1.87,4.44,2.93,7.07,2.93s5.21-1.07,7.069-2.93c1.87-1.86,2.931-4.44,2.931-7.07
			S344.27,197.92,342.4,196.06z"/>
	</g>
</g>
<g>
	<g>
		<path d="M458.924,193.132h-55.293c-5.523,0-10,4.477-10,10c0,5.523,4.478,10,10,10h55.293c5.522,0,10-4.477,10-10
			C468.924,197.609,464.446,193.132,458.924,193.132z"/>
	</g>
</g>
<g>
</g>
<g>
</g>
<g>
</g>
<g>
</g>
<g>
</g>
<g>
</g>
<g>
</g>
<g>
</g>
<g>
</g>
<g>
</g>
<g>
</g>
<g>
</g>
<g>
</g>
<g>
</g>
<g>
</g>
</svg>
