<?xml version="1.0" encoding="iso-8859-1"?>
<!-- Generator: Adobe Illustrator 19.0.0, SVG Export Plug-In . SVG Version: 6.00 Build 0)  -->
<svg version="1.1" id="Capa_1" xmlns="http://www.w3.org/2000/svg" xmlns:xlink="http://www.w3.org/1999/xlink" x="0px" y="0px"
	 viewBox="0 0 512 512" style="enable-background:new 0 0 512 512;" xml:space="preserve">
<g>
	<g>
		<path d="M503.184,8.816C497.499,3.131,489.94,0,481.899,0s-15.6,3.131-21.284,8.816c-5.686,5.686-8.817,13.244-8.817,21.285
			c0,4.58,1.02,9.003,2.945,13.014l-12.097,12.097c-20.075-13.973-47.24-13.439-66.772,1.601l-233.922,78.683l-3.908-13.902
			l4.179-1.406c5.235-1.761,8.051-7.432,6.29-12.667c-1.76-5.233-7.431-8.051-12.666-6.29l-26.382,8.874
			c-5.235,1.761-8.051,7.432-6.29,12.667c1.405,4.177,5.3,6.814,9.477,6.814c1.057,0,2.132-0.169,3.189-0.524l3.223-1.084
			l3.908,13.902l-17.563,5.907c-16.899,5.685-30.515,18.389-37.357,34.854l-7.92,19.063L6.82,219.614
			c-5.235,1.759-8.054,7.429-6.295,12.664c1.404,4.18,5.3,6.818,9.479,6.818c1.055,0,2.129-0.169,3.185-0.523l56.086-18.84
			c0.988-0.173,1.938-0.496,2.827-0.95l139.239-46.772l57.254,57.255l-10.221,10.222c-3.905,3.905-3.905,10.237,0,14.143
			c1.953,1.952,4.512,2.929,7.071,2.929c2.559,0,5.119-0.977,7.071-2.929l10.221-10.221l57.254,57.254l-46.736,139.129
			c-0.487,0.928-0.819,1.932-0.997,2.969l-18.829,56.052c-1.759,5.235,1.06,10.905,6.295,12.664
			c1.056,0.354,2.129,0.523,3.186,0.523c4.178,0,8.074-2.64,9.478-6.818l17.91-53.316l19.063-7.92
			c16.465-6.84,29.169-20.455,34.854-37.355l5.884-17.494l14.033,3.945l-1.084,3.222c-1.761,5.235,1.055,10.906,6.29,12.667
			c1.058,0.355,2.132,0.524,3.189,0.524c4.176,0,8.072-2.638,9.477-6.814l8.874-26.383c1.761-5.235-1.055-10.906-6.29-12.667
			c-5.237-1.761-10.906,1.056-12.666,6.29l-1.406,4.18l-14.032-3.945l26.527-78.864c1.761-5.235-1.055-10.906-6.29-12.667
			c-5.238-1.761-10.906,1.056-12.666,6.29l-38.796,115.337c-3.845,11.43-12.436,20.638-23.571,25.264l-2.935,1.219l90.206-268.537
			c0.466,0.011,0.932,0.033,1.397,0.033c5.812,0,11.622-0.904,17.211-2.68l-18.696,55.582c-1.761,5.235,1.055,10.906,6.29,12.667
			c1.058,0.355,2.132,0.524,3.189,0.524c4.176,0,8.072-2.638,9.477-6.814l27.294-81.146c0.02-0.058,0.031-0.117,0.049-0.176
			c15.059-19.534,15.6-46.713,1.62-66.797l12.109-12.109c4.098,1.958,8.548,2.943,13.001,2.943c7.708,0,15.417-2.935,21.285-8.802
			c5.685-5.687,8.816-13.245,8.816-21.285C512.001,22.061,508.869,14.502,503.184,8.816z M85.304,193.25l1.219-2.935
			c4.627-11.136,13.835-19.728,25.264-23.571l244.657-82.294c-1.744,5.489-2.662,11.271-2.662,17.196
			c0,0.471,0.023,0.938,0.034,1.406L85.304,193.25z M347.102,279.489l-50.224-50.224l11.968-11.968
			c3.905-3.905,3.905-10.237,0-14.143c-3.905-3.904-10.237-3.904-14.142,0l-11.968,11.968l-50.225-50.224l125.348-42.107
			c2.809,6.975,7.014,13.38,12.491,18.857c5.558,5.558,11.994,9.711,18.865,12.468L347.102,279.489z M436.214,127.507
			c-14.26,14.259-37.463,14.259-51.722,0c-6.908-6.907-10.712-16.092-10.712-25.86s3.804-18.953,10.712-25.86
			c7.13-7.131,16.496-10.696,25.861-10.696c9.366,0,18.731,3.565,25.861,10.695C450.474,90.047,450.474,113.247,436.214,127.507z
			 M489.042,37.244c-3.939,3.939-10.347,3.939-14.285,0c-1.908-1.908-2.959-4.444-2.959-7.143s1.051-5.235,2.959-7.144
			c1.908-1.907,4.444-2.958,7.142-2.958s5.235,1.051,7.143,2.959c1.908,1.907,2.958,4.444,2.958,7.143S490.95,35.336,489.042,37.244
			z"/>
	</g>
</g>
<g>
	<g>
		<path d="M412.331,246.129c-1.86-1.86-4.441-2.93-7.07-2.93c-2.64,0-5.21,1.069-7.07,2.93c-1.87,1.86-2.93,4.439-2.93,7.07
			c0,2.63,1.06,5.21,2.93,7.069c1.86,1.86,4.44,2.931,7.07,2.931s5.21-1.07,7.07-2.931c1.86-1.859,2.93-4.439,2.93-7.069
			C415.261,250.557,414.191,247.989,412.331,246.129z"/>
	</g>
</g>
<g>
	<g>
		<path d="M45.406,259.56l-0.077-0.271c-1.491-5.318-7.011-8.42-12.329-6.93c-5.318,1.491-8.42,7.011-6.929,12.328l0.101,0.355
			c1.253,4.396,5.257,7.262,9.612,7.262c0.907,0,1.831-0.125,2.746-0.386C43.842,270.402,46.92,264.87,45.406,259.56z"/>
	</g>
</g>
<g>
	<g>
		<path d="M249.755,465.552C162.859,440.189,92.801,377.715,57.548,294.15c-2.147-5.088-8.013-7.473-13.101-5.327
			c-5.088,2.146-7.473,8.013-5.327,13.101c18.259,43.28,46.498,82.781,81.665,114.234c35.379,31.644,78.04,55.363,123.367,68.594
			c0.936,0.272,1.878,0.403,2.806,0.403c4.33,0,8.321-2.835,9.595-7.201C258.1,472.651,255.057,467.1,249.755,465.552z"/>
	</g>
</g>
<g>
</g>
<g>
</g>
<g>
</g>
<g>
</g>
<g>
</g>
<g>
</g>
<g>
</g>
<g>
</g>
<g>
</g>
<g>
</g>
<g>
</g>
<g>
</g>
<g>
</g>
<g>
</g>
<g>
</g>
</svg>
