<?xml version="1.0"?>
<svg xmlns="http://www.w3.org/2000/svg" width="512" height="512" viewBox="0 0 512 512"><g><path d="M496,136H445.26l4.42-4.43,16.97-16.97,11.32-11.31a32,32,0,0,0-45.26-45.26L421.4,69.35,404.43,86.32,354.74,136H94.16a43.5,43.5,0,0,0-84.01,2.54A8,8,0,0,0,8,144V464a8,8,0,0,0,8,8H496a8,8,0,0,0,8-8V144A8,8,0,0,0,496,136ZM27.49,456a27.547,27.547,0,0,1,50.02,0ZM80,433.72a43.766,43.766,0,0,0-56,.83V148.36A8.1,8.1,0,0,0,25.23,145a27.5,27.5,0,0,1,54.55.03A28.609,28.609,0,0,1,80,148.5ZM444.02,69.35a16,16,0,1,1,22.63,22.63L461,97.63,438.37,75ZM427.05,86.32l22.63,22.63-5.66,5.65L421.4,91.98Zm-16.97,16.97,22.63,22.63L313.92,244.71l-22.63-22.63ZM274.99,239.72l.66-2,4.33-4.32,22.62,22.62-4.32,4.33-2,.66Zm4.32,26.95-14.97,4.99,4.99-14.97ZM488,456H96V152H338.74L263,227.74a8.189,8.189,0,0,0-1.93,3.13L244.1,281.78a7.994,7.994,0,0,0,7.59,10.53,8.168,8.168,0,0,0,2.53-.41l50.91-16.97a8.189,8.189,0,0,0,3.13-1.93l121-121H488Z"/><path d="M308.26,227.74a8,8,0,0,0,11.314,0L393.113,154.2A8,8,0,1,0,381.8,142.887L308.26,216.426A8,8,0,0,0,308.26,227.74Z"/><path d="M404.427,139.573a7.976,7.976,0,0,0,5.657-2.343l5.656-5.656a8,8,0,0,0-11.314-11.314l-5.656,5.656a8,8,0,0,0,5.657,13.657Z"/><path d="M400,424H272V360a8,8,0,0,0-3.562-6.656l-48-32a8,8,0,0,0-8.876,0l-48,32A8,8,0,0,0,160,360v64H128a8,8,0,0,0,0,16H400a8,8,0,0,0,0-16Zm-176,0H208V392h16Zm32,0H240V384a8,8,0,0,0-8-8H200a8,8,0,0,0-8,8v40H176V364.281l40-26.666,40,26.666Z"/><path d="M432,424h-8a8,8,0,0,0,0,16h8a8,8,0,0,0,0-16Z"/><path d="M128,184h72a8,8,0,0,0,0-16H128a8,8,0,0,0,0,16Z"/><path d="M128,208h24a8,8,0,0,0,0-16H128a8,8,0,0,0,0,16Z"/><path d="M408,360a8,8,0,0,0,8,8h56a8,8,0,0,0,0-16H416A8,8,0,0,0,408,360Z"/><path d="M472,376H448a8,8,0,0,0,0,16h24a8,8,0,0,0,0-16Z"/></g></svg>
