<?xml version="1.0"?>
<svg xmlns="http://www.w3.org/2000/svg" width="512" height="512" viewBox="0 0 512 512"><g><path d="M424,8H88a8,8,0,0,0-8,8V496a8,8,0,0,0,8,8H424a8,8,0,0,0,8-8V16A8,8,0,0,0,424,8ZM200,24H312V56H280a8,8,0,0,0-8,8,16,16,0,0,1-32,0,8,8,0,0,0-8-8H200Zm-80,0h64V64a8,8,0,0,0,8,8h33.01a32.008,32.008,0,0,0,61.98,0H320a8,8,0,0,0,8-8V24h64V464H120ZM416,488H96V24h8V472a8,8,0,0,0,8,8H400a8,8,0,0,0,8-8V24h8Z"/><path d="M144,216h56a8,8,0,0,0,8-8V155.314l17.657-17.657a8,8,0,1,0-11.314-11.314L196.686,144H144a8,8,0,0,0-8,8v56A8,8,0,0,0,144,216Zm48-16H152v-24a7.973,7.973,0,0,0,2.343,5.652l8,8a8,8,0,0,0,11.314,0L192,171.314Zm-11.313-40L168,172.687l-2.343-2.344A8,8,0,0,0,152,176V160Z"/><path d="M368,144H232a8,8,0,0,0,0,16H368a8,8,0,0,0,0-16Z"/><path d="M232,184h88a8,8,0,0,0,0-16H232a8,8,0,0,0,0,16Z"/><path d="M352,184a8,8,0,0,0,0-16h-8a8,8,0,0,0,0,16Z"/><path d="M368,192H232a8,8,0,0,0,0,16H368a8,8,0,0,0,0-16Z"/><path d="M144,312h56a8,8,0,0,0,8-8V251.314l17.657-17.657a8,8,0,0,0-11.314-11.314L196.686,240H144a8,8,0,0,0-8,8v56A8,8,0,0,0,144,312Zm48-16H152v-24a7.973,7.973,0,0,0,2.343,5.652l8,8a8,8,0,0,0,11.314,0L192,267.314Zm-11.314-40L168,268.687l-2.343-2.344A8,8,0,0,0,152,272V256Z"/><path d="M368,240H232a8,8,0,0,0,0,16H368a8,8,0,0,0,0-16Z"/><path d="M232,280h88a8,8,0,0,0,0-16H232a8,8,0,0,0,0,16Z"/><path d="M352,280a8,8,0,0,0,0-16h-8a8,8,0,0,0,0,16Z"/><path d="M368,288H232a8,8,0,0,0,0,16H368a8,8,0,0,0,0-16Z"/><path d="M225.657,329.657a8,8,0,1,0-11.314-11.314L196.686,336H144a8,8,0,0,0-8,8v56a8,8,0,0,0,8,8h56a8,8,0,0,0,8-8V347.314ZM180.686,352,168,364.687l-2.343-2.344A8,8,0,0,0,152,368V352ZM192,392H152v-24a7.973,7.973,0,0,0,2.343,5.652l8,8a8,8,0,0,0,11.314,0L192,363.314Z"/><path d="M368,336H232a8,8,0,0,0,0,16H368a8,8,0,0,0,0-16Z"/><path d="M232,376h88a8,8,0,0,0,0-16H232a8,8,0,0,0,0,16Z"/><path d="M352,376a8,8,0,0,0,0-16h-8a8,8,0,0,0,0,16Z"/><path d="M368,384H232a8,8,0,0,0,0,16H368a8,8,0,0,0,0-16Z"/></g></svg>
