<svg height="661pt" viewBox="-20 -20 661.33333 661" width="661pt" xmlns="http://www.w3.org/2000/svg"><path d="m220 60.167969c-22.089844 0-40 17.910156-40 40 0 22.089843 17.910156 40 40 40s40-17.910157 40-40c0-22.089844-17.910156-40-40-40zm0 60c-11.042969 0-20-8.957031-20-20 0-11.046875 8.957031-20 20-20 11.046875 0 20 8.953125 20 20 0 11.042969-8.953125 20-20 20zm0 0"/><path d="m610 200.167969h-210c-5.523438 0-10 4.476562-10 10v225.859375c-5.492188-2.742188-11.25-4.910156-17.191406-6.460938-2.066406-.609375-92.808594-17.699218-92.808594-17.699218v-31.320313c30.625-15.074219 50.015625-46.246094 50-80.378906v-90h30c5.523438 0 10-4.480469 10-10v-40c0-5.523438-4.476562-10-10-10h-11.640625c-8.148437-54.097657-46.265625-98.894531-98.359375-115.59375v-24.40625c0-5.523438-4.476562-10-10-10h-40c-5.523438 0-10 4.476562-10 10v24.40625c-52.09375 16.699219-90.210938 61.496093-98.359375 115.59375h-11.640625c-5.523438 0-10 4.476562-10 10v40c0 5.519531 4.476562 10 10 10h30v90c-.015625 34.128906 19.378906 65.296875 50 80.371093v31.328126s-90.742188 17.089843-92.488281 17.609374l-.242188.078126h-.078125c-39.601562 10.3125-67.2265622 46.089843-67.191406 87.011718v93.601563c0 5.519531 4.476562 10 10 10h420c5.523438 0 10-4.480469 10-10v-93.601563c-.019531-5.5-.535156-10.988281-1.546875-16.398437h171.546875c5.523438 0 10-4.480469 10-10v-280c0-5.523438-4.476562-10-10-10zm-410 190h40c6.273438-.015625 12.535156-.683594 18.671875-2.003907.449219-.066406.890625-.125 1.328125-.230468v22.234375h-80v-22.253907c.429688.105469.871094.164063 1.308594.230469 6.144531 1.324219 12.40625 2.003907 18.691406 2.023438zm50.570312 40-30.570312 42.785156-30.570312-42.785156zm-40.570312-400v-10h20v10zm10 20c56.050781 0 99.074219 49.855469 108.199219 100h-216.398438c9.128907-50.144531 52.199219-100 108.199219-100zm-130 120h260v20h-260zm40 130v-90h180v90c.070312 28.535156-17.234375 54.238281-43.699219 64.910156-8.367187 3.351563-17.292969 5.078125-26.300781 5.089844h-40c-8.988281-.007813-17.894531-1.726563-26.238281-5.058594-26.492188-10.664063-43.824219-36.382813-43.761719-64.941406zm-110 216.398437c.039062-26.964844 15.609375-51.492187 40-63v146.601563h-40zm60-69.308594 40-7.53125v160.441407h-40zm60-11.289062 25.570312-4.800781 46.289063 64.808593c1.875 2.632813 4.910156 4.191407 8.140625 4.191407 3.234375 0 6.265625-1.558594 8.140625-4.191407l46.289063-64.808593 25.570312 4.800781v164.199219h-160zm180 164.199219v-160.441407l40 7.53125v152.910157zm100-83.601563v83.601563h-40v-146.699219c3.480469 1.621094 6.828125 3.527344 10 5.695312v31.003907c0 5.519531 4.476562 10 10 10h18.070312c1.277344 5.375 1.921876 10.878906 1.929688 16.398437zm180-36.398437h-190v-260h190zm0 0"/><path d="m398 169.964844 50 10c.65625.136718 1.328125.207031 2 .203125h140c16.566406 0 30-13.433594 30-30 0-16.570313-13.433594-30-30-30h-140c-.355469.046875-.710938.117187-1.058594.207031-.3125 0-.601562-.078125-.898437 0l-50 10c-4.671875.933594-8.03125 5.03125-8.042969 9.792969v20c0 4.75 3.34375 8.847656 8 9.796875zm202-19.796875c0 5.519531-4.476562 10-10 10h-20v-20h20c5.523438 0 10 4.476562 10 10zm-50 10h-90v-20h90zm-140-11.804688 30-5.996093v15.597656l-30-5.996094zm0 0"/><path d="m430 310.167969h60c5.523438 0 10-4.480469 10-10v-60c0-5.523438-4.476562-10-10-10h-60c-5.523438 0-10 4.476562-10 10v60c0 5.519531 4.476562 10 10 10zm10-60h40v40h-40zm0 0"/><path d="m430 350.167969h150c5.523438 0 10-4.480469 10-10 0-5.523438-4.476562-10-10-10h-150c-5.523438 0-10 4.476562-10 10 0 5.519531 4.476562 10 10 10zm0 0"/><path d="m430 390.167969h130c5.523438 0 10-4.480469 10-10 0-5.523438-4.476562-10-10-10h-130c-5.523438 0-10 4.476562-10 10 0 5.519531 4.476562 10 10 10zm0 0"/><path d="m430 470.167969h120c5.523438 0 10-4.480469 10-10 0-5.523438-4.476562-10-10-10h-120c-5.523438 0-10 4.476562-10 10 0 5.519531 4.476562 10 10 10zm0 0"/><path d="m580 410.167969h-20c-5.523438 0-10 4.476562-10 10 0 5.519531 4.476562 10 10 10h20c5.523438 0 10-4.480469 10-10 0-5.523438-4.476562-10-10-10zm0 0"/><path d="m430 430.167969h90c5.523438 0 10-4.480469 10-10 0-5.523438-4.476562-10-10-10h-90c-5.523438 0-10 4.476562-10 10 0 5.519531 4.476562 10 10 10zm0 0"/><path d="m530 310.167969h50c5.523438 0 10-4.480469 10-10 0-5.523438-4.476562-10-10-10h-50c-5.523438 0-10 4.476562-10 10 0 5.519531 4.476562 10 10 10zm0 0"/><path d="m530 270.167969h50c5.523438 0 10-4.480469 10-10 0-5.523438-4.476562-10-10-10h-50c-5.523438 0-10 4.476562-10 10 0 5.519531 4.476562 10 10 10zm0 0"/></svg>