<svg height="661pt" viewBox="-21 -20 661 661.34663" width="661pt" xmlns="http://www.w3.org/2000/svg"><path d="m610.128906 540.019531h-10v-315.453125c1.628906-1.390625 3.171875-2.871094 4.628906-4.429687 12.574219-14.066407 17.835938-33.203125 14.234376-51.722657-6.425782-32.507812-37.980469-53.648437-70.488282-47.230468-1.050781.199218-2.089844.5625-3.128906.832031l-91.722656-61.527344c.050781-4.046875-.320313-8.089843-1.101563-12.058593-6.394531-32.523438-37.945312-53.691407-70.460937-47.285157-32.558594 6.511719-53.683594 38.160157-47.210938 70.722657.53125 2.648437 1.300782 5.253906 2.289063 7.773437 4.171875 12.152344 12.25 22.582031 22.980469 29.65625v110.742187c0 5.523438 4.476562 10 9.996093 10 5.523438 0 10 4.472657 10 10 0 5.523438-4.476562 10-10 10-5.519531 0-9.996093-4.476562-9.996093-10 0-5.527343-4.480469-10-10-10h-40c-5.519532 0-9.996094 4.472657-9.996094 10-.046875 31.597657 21.09375 59.316407 51.585937 67.625 30.492188 8.316407 62.769531-4.835937 78.769531-32.089843 16-27.253907 11.753907-61.851563-10.367187-84.425781v-56.765626l80.710937 54c.144532 1.078126.21875 2.175782.429688 3.234376 2.503906 12.398437 8.851562 23.691406 18.148438 32.269531l-47.890626 316.132812h-111.390624c-5.523438 0-10 4.472657-10 10v59.996094c0 5.519531 4.476562 9.996094 10 9.996094h249.980468c5.523438 0 10-4.476563 10-9.996094v-59.996094c0-5.527343-4.476562-10-10-10zm-49.921875-399.972656c19.074219.03125 35.476563 13.539063 39.167969 32.253906 2.394531 12.371094-1.128906 25.148438-9.53125 34.535157-11.882812 13.164062-31.015625 16.933593-47 9.265624-11.320312-5.488281-19.425781-15.957031-21.90625-28.289062-.628906-3.332031-.863281-6.71875-.699219-10.105469v-.097656c.808594-14.460937 9.441407-27.332031 22.519531-33.566406.0625-.046875.128907-.089844.199219-.128907 3.007813-1.414062 6.171875-2.460937 9.425781-3.132812 2.578126-.5 5.195313-.75 7.824219-.734375zm-184.25-44.242187c-.25-.171876-.527343-.257813-.78125-.398438-.25-.136719-.222656-.230469-.359375-.300781-8.976562-4.738281-15.757812-12.785157-18.90625-22.4375-.625-1.578125-1.113281-3.207031-1.453125-4.867188-1.878906-9.292969-.339843-18.945312 4.332031-27.191406 5.410157-9.796875 14.683594-16.871094 25.566407-19.496094 10.875-2.628906 22.355469-.5625 31.636719 5.6875 8.882812 5.90625 15.007812 15.140625 17 25.617188.835937 4 1.054687 8.105469.648437 12.167969-.222656 1.890624-.578125 3.765624-1.066406 5.601562-3.457031 12.929688-13.144531 23.269531-25.820313 27.554688-1.773437.644531-3.539062 1.125-5.78125 1.707031-.667968-.007813-1.339844.058593-1.996094.1875-1.039062.171875-2.089843.25-3.140624.230469-6.863282.363281-13.707032-1.035157-19.878907-4.0625zm-5.8125 194.230468c-23.746093-.027344-44.214843-16.738281-48.996093-39.996094h20.699218c4.660156 13.160157 17.796875 21.371094 31.671875 19.789063 13.875-1.578125 24.828125-12.523437 26.410157-26.40625 1.585937-13.875-6.617188-27.007813-19.785157-31.671875v-93.335938c5.335938 1.257813 10.824219 1.734376 16.296875 1.433594 1.242188.003906 2.472656-.058594 3.703125-.183594v75.773438c0 2.867188 1.226563 5.589844 3.367188 7.488281 15.4375 13.808594 20.742187 35.714844 13.335937 55.054688-7.40625 19.335937-25.992187 32.09375-46.703125 32.054687zm54.777344-178.992187c1.839844-1.097657 3.617187-2.300781 5.324219-3.597657.925781-.707031 1.816406-1.441406 2.699218-2.203124 1.554688-1.34375 3.046876-2.777344 4.445313-4.285157.78125-.820312 1.574219-1.613281 2.300781-2.472656 1.539063-1.855469 2.964844-3.800781 4.273438-5.828125.410156-.621094.886718-1.191406 1.277344-1.820312 1.574218-2.648438 2.949218-5.40625 4.105468-8.257813.105469-.230469.253906-.4375.34375-.683594l74.59375 49.996094c-.296875.21875-.535156.511719-.828125.734375-2.082031 1.609375-4.054687 3.351562-5.910156 5.21875-.4375.449219-.910156.867188-1.339844 1.328125-4.265625 4.585937-7.78125 9.8125-10.421875 15.492187-.382812.820313-.6875 1.660157-.996094 2.5-.847656 2.054688-1.582031 4.160157-2.191406 6.296876-.160156.550781-.417968 1.058593-.5625 1.613281l-78.890625-52.78125c.609375-.355469 1.15625-.847657 1.777344-1.25zm112.996094 124.609375c6.988281 2.871094 14.460937 4.355468 22.015625 4.386718 3.972656-.003906 7.933594-.402343 11.828125-1.171874 2.84375-.578126 5.640625-1.351563 8.371093-2.320313v303.472656h-88.363281zm62.210937 364.363281h-229.984375v-10h149.992188c5.519531 0 10-4.476563 10-10 0-5.527344-4.480469-10-10-10h-149.992188v-10h229.984375zm0 0"/><path d="m530.707031 185.828125c.300781 1.632813.757813 3.226563 1.363281 4.769531 2.589844 6.945313 7.683594 12.667969 14.273438 16.050782 2.34375 1.242187 4.847656 2.167968 7.441406 2.738281 8.21875 1.738281 16.785156-.011719 23.667969-4.828125.863281-.617188 1.6875-1.285156 2.46875-1.996094 6.328125-5.519531 10.035156-13.441406 10.210937-21.832031.070313-2.175781-.105468-4.359375-.519531-6.496094-.53125-2.492187-1.363281-4.910156-2.480469-7.195313-4.695312-9.855468-14.394531-16.375-25.300781-16.996093-2.515625-.136719-5.042969.039062-7.519531.527343-16.253906 3.214844-26.828125 19.003907-23.605469 35.257813zm27.488281-15.597656c.660157-.128907 1.328126-.191407 2-.1875h.546876c3.578124.199219 6.773437 2.324219 8.339843 5.546875.382813.796875.664063 1.636718.839844 2.5.140625.71875.195313 1.449218.160156 2.183594-.078125 2.910156-1.40625 5.648437-3.636719 7.519531-.261718.238281-.5625.429687-.550781.4375-2.3125 1.582031-5.175781 2.152343-7.917969 1.585937-.851562-.195312-1.667968-.507812-2.433593-.925781-2.253907-1.15625-3.988281-3.128906-4.847657-5.523437-.171874-.453126-.304687-.925782-.390624-1.40625-1.058594-5.417969 2.476562-10.667969 7.890624-11.730469zm0 0"/><path d="m410.695312 84.765625c.660157-.4375 1.390626-1 2.25-1.726563l.308594-.230468.082032-.0625c.117187-.089844.21875-.1875.328124-.28125 6.257813-5.625 9.910157-13.585938 10.089844-21.996094v-.121094c.015625-4.601562-1.007812-9.152344-3-13.308594-4.671875-9.847656-14.347656-16.363281-25.230468-16.988281-2.566407-.136719-5.144532.03125-7.679688.488281-16.144531 3.25-26.652344 18.910157-23.539062 35.085938.304687 1.679688.761718 3.332031 1.382812 4.921875 2.59375 6.917969 7.675781 12.628906 14.246094 16 2.273437 1.285156 4.726562 2.203125 7.28125 2.730469 2.082031.476562 4.207031.710937 6.34375.707031 2.070312-.003906 4.140625-.199219 6.175781-.582031 3.921875-.824219 7.640625-2.394532 10.960937-4.636719zm-14.800781-15c-1.554687.292969-3.15625.261719-4.699219-.097656-.703124-.1875-1.378906-.480469-1.996093-.859375-2.265625-1.152344-4.011719-3.125-4.875-5.511719-.175781-.476563-.308594-.976563-.390625-1.480469-1.023438-5.304687 2.347656-10.472656 7.621094-11.65625.703124-.105468 1.410156-.136718 2.121093-.109375h.710938c3.550781.230469 6.714843 2.339844 8.296875 5.527344.417968.851563.710937 1.757813.882812 2.691406.121094.640625.179688 1.289063.167969 1.9375-.03125 1.347657-.339844 2.671875-.898437 3.890625-.59375 1.28125-1.425782 2.433594-2.460938 3.390625-.261719.207031-.519531.4375-.851562.667969-1.09375.769531-2.328126 1.332031-3.628907 1.648438zm0 0"/><path d="m570.132812 570.015625h-20c-5.519531 0-10 4.472656-10 10 0 5.523437 4.480469 10 10 10h20c5.523438 0 10-4.476563 10-10 0-5.527344-4.476562-10-10-10zm0 0"/><path d="m80.164062 360.03125h-39.996093c-5.523438 0-10 4.472656-10 10v39.996094c0 5.523437 4.476562 10 10 10h39.996093c5.523438 0 10-4.476563 10-10v-39.996094c0-5.527344-4.476562-10-10-10zm-10 39.996094h-19.996093v-20h19.996093zm0 0"/><path d="m160.160156 360.03125h-39.996094c-5.523437 0-10 4.472656-10 10v39.996094c0 5.523437 4.476563 10 10 10h39.996094c5.523438 0 10-4.476563 10-10v-39.996094c0-5.527344-4.476562-10-10-10zm-10 39.996094h-20v-20h20zm0 0"/><path d="m240.15625 360.03125h-40c-5.519531 0-10 4.472656-10 10v39.996094c0 5.523437 4.480469 10 10 10h40c5.519531 0 9.996094-4.476563 9.996094-10v-39.996094c0-5.527344-4.476563-10-9.996094-10zm-10 39.996094h-20v-20h20zm0 0"/><path d="m80.164062 280.035156h-39.996093c-5.523438 0-10 4.472656-10 10v39.996094c0 5.523438 4.476562 10 10 10h39.996093c5.523438 0 10-4.476562 10-10v-39.996094c0-5.527344-4.476562-10-10-10zm-10 40h-19.996093v-20h19.996093zm0 0"/><path d="m160.160156 280.035156h-39.996094c-5.523437 0-10 4.472656-10 10v39.996094c0 5.523438 4.476563 10 10 10h39.996094c5.523438 0 10-4.476562 10-10v-39.996094c0-5.527344-4.476562-10-10-10zm-10 40h-20v-20h20zm0 0"/><path d="m240.15625 280.035156h-40c-5.519531 0-10 4.472656-10 10v39.996094c0 5.523438 4.480469 10 10 10h40c5.519531 0 9.996094-4.476562 9.996094-10v-39.996094c0-5.527344-4.476563-10-9.996094-10zm-10 40h-20v-20h20zm0 0"/><path d="m80.164062 200.042969h-39.996093c-5.523438 0-10 4.472656-10 9.996093v40c0 5.519532 4.476562 10 10 10h39.996093c5.523438 0 10-4.480468 10-10v-40c0-5.523437-4.476562-9.996093-10-9.996093zm-10 39.996093h-19.996093v-20h19.996093zm0 0"/><path d="m160.160156 200.042969h-39.996094c-5.523437 0-10 4.472656-10 9.996093v40c0 5.519532 4.476563 10 10 10h39.996094c5.523438 0 10-4.480468 10-10v-40c0-5.523437-4.476562-9.996093-10-9.996093zm-10 39.996093h-20v-20h20zm0 0"/><path d="m120.164062 90.046875h-40c-5.519531 0-10 4.472656-10 10v40c0 5.519531 4.480469 9.996094 10 9.996094h40c5.519532 0 9.996094-4.476563 9.996094-9.996094v-40c0-5.527344-4.476562-10-9.996094-10zm-10 40h-20v-20h20zm0 0"/><path d="m200.15625 90.046875h-39.996094c-5.523437 0-10 4.472656-10 10v40c0 5.519531 4.476563 9.996094 10 9.996094h39.996094c5.523438 0 10-4.476563 10-9.996094v-40c0-5.527344-4.476562-10-10-10zm-10 40h-19.996094v-20h19.996094zm0 0"/><path d="m240.15625 200.042969h-40c-5.519531 0-10 4.472656-10 9.996093v40c0 5.519532 4.480469 10 10 10h40c5.519531 0 9.996094-4.480468 9.996094-10v-40c0-5.523437-4.476563-9.996093-9.996094-9.996093zm-10 39.996093h-20v-20h20zm0 0"/><path d="m430.140625 470.023438c5.523437 0 10-4.476563 10-10v-29.996094c0-5.527344-4.476563-10-10-10h-29.996094v-59.996094c0-5.527344-4.476562-10-10-10h-69.996093c-5.519532 0-10 4.472656-10 10v59.996094h-29.996094v-249.984375c0-5.527344-4.476563-10-10-10h-29.996094v-89.992188c0-5.527343-4.480469-10-10-10h-179.988281c-5.523438 0-10 4.472657-10 10v89.992188h-29.996094c-5.523437 0-10 4.472656-10 10v439.972656c0 5.519531 4.476563 9.996094 10 9.996094h259.980469c5.523437 0 10-4.476563 10-9.996094v-139.992187zm-99.992187-99.992188h49.996093v49.996094h-49.996093zm-10 69.992188h99.992187v10h-139.988281v-10zm-259.980469-359.972657h159.988281v79.992188h-159.988281zm29.996093 519.964844v-99.996094h39.996094v99.996094zm-20-119.992187v-10h139.992188v10zm79.996094 119.992187v-99.996094h39.996094v99.996094zm109.992188 0h-49.996094v-99.996094h10c5.523438 0 10-4.476562 10-9.996093v-30c0-5.527344-4.476562-10-10-10h-159.988281c-5.523438 0-10 4.472656-10 10v30c0 5.519531 4.476562 9.996093 10 9.996093h9.996093v99.996094h-49.996093v-419.972656h239.984375zm0 0"/></svg>